<?xml version="1.0" encoding="utf-8"?>
<svg viewBox="39.11 53.343 180.671 108.5" xmlns="http://www.w3.org/2000/svg">
  <path style="fill:#ba6468; stroke:none;" d="M125.667 57.3333L126.333 57.6667L125.667 57.3333z"/>
  <path style="fill:#b0090f; stroke:none;" d="M99 83C100.534 85.4556 102.204 87.7285 104.004 90.0015C106.024 92.5529 108.833 97.7077 112.156 98.6543C119.075 100.625 126.743 79.8777 131 76C132.633 85.1541 139.612 92.7254 145 100C151.441 96.9331 156.8 89.2682 160 83C147.536 78.0652 145.138 56.4546 129 57.2816C113.131 58.0949 112.18 79.5285 99 83z"/>
  <path style="fill:#ba6468; stroke:none;" d="M132.667 57.3333L133.333 57.6667L132.667 57.3333M123 58L124 59L123 58M135 58L136 59L135 58M122 59L123 60L122 59M137 59L138 60L137 59M120 60L121 61L120 60M138 60L139 61L138 60M119 61L120 62L119 61M118 62L119 63L118 62M141 62L142 63L141 62M142 63L143 64L142 63M143 64L144 65L143 64M144 65L145 66L144 65M114 66L115 67L114 66M113 67L114 68L113 67M112 68L113 69L112 68M146 68L147 69L146 68M147 69L148 70L147 69M111 70L112 71L111 70M110 71L111 72L110 71M148 71L149 72L148 71M149 72L150 73L149 72M109 73L110 74L109 73M108 74L109 75L108 74M150 74L151 75L150 74M151 75L152 76L151 75M107 76L108 77L107 76M130.333 76.6667L130.667 77.3333L130.333 76.6667M128 77L129 78L128 77M152 77L153 78L152 77M106 78L107 79L106 78z"/>
  <path style="fill:#7aa28d; stroke:none;" d="M128 78L129 79L128 78z"/>
  <path style="fill:#ba6468; stroke:none;" d="M131 79L132 80L131 79M153 79L154 80L153 79M105 80L106 81L105 80M127 80L128 81L127 80M103.667 81.3333L104.333 81.6667L103.667 81.3333M132 81L133 82L132 81M155 81L156 82L155 81M100.667 82.3333L101.333 82.6667L100.667 82.3333M126 82L127 83L126 82M158 82L159 83L158 82M125.333 83.6667L125.667 84.3333L125.333 83.6667M133 83L134 84L133 83z"/>
  <path style="fill:#7aa28d; stroke:none;" d="M160 83L161 84L160 83z"/>
  <path style="fill:#ba6468; stroke:none;" d="M166 83L167 84L166 83M91.6667 84.3333L92.3333 84.6667L91.6667 84.3333z"/>
  <path style="fill:#b0090f; stroke:none;" d="M93 84C76.5893 90.2817 25.4297 105.508 50 132L54 107L65 114L71 94L86 105L93 84z"/>
  <path style="fill:#ba6468; stroke:none;" d="M94 84L95 85L94 84M99 84L100 85L99 84M159 84L160 85L159 84z"/>
  <path style="fill:#b0090f; stroke:none;" d="M166 84L176 105L190 96L196 111L206 107L215 125C217.381 119.273 214.029 112.055 211.12 107C202.683 92.3364 182.257 84.7088 166 84z"/>
  <path style="fill:#7aa28d; stroke:none;" d="M158 86L159 87L158 86z"/>
  <path style="fill:#ba6468; stroke:none;" d="M180.667 86.3333L181.333 86.6667L180.667 86.3333M81 87L82 88L81 87M123 87L124 88L123 87M157 87L158 88L157 87M167 87L168 88L167 87M183.667 87.3333L184.333 87.6667L183.667 87.3333M78 88L79 89L78 88M102 88L103 89L102 88M122 88L123 89L122 88M136 88L137 89L136 88M156 88L157 89L156 88M186.667 88.3333L187.333 88.6667L186.667 88.3333M75.6667 89.3333L76.3333 89.6667L75.6667 89.3333M92 89L93 90L92 89M103 89L104 90L103 89M137 89L138 90L137 89M155 89L156 90L155 89M168 89L169 90L168 89M189 89L190 90L189 89M73 90L74 91L73 90M104 90L105 91L104 90M121 90L122 91L121 90M191 90L192 91L191 90M70 91L71 92L70 91M91 91L92 92L91 91M105 91L106 92L105 91M120 91L121 92L120 91z"/>
  <path style="fill:#7aa28d; stroke:none;" d="M129 91L127 94L129 91z"/>
  <path style="fill:#ba6468; stroke:none;" d="M138 91L139 92L138 91M169 91L170 92L169 91M193 91L194 92L193 91M68 92L69 93L68 92z"/>
  <path style="fill:#0a6336; stroke:none;" d="M129 92L125 99L133 99L129 92z"/>
  <path style="fill:#ba6468; stroke:none;" d="M139 92L140 93L139 92M153 92L154 93L153 92z"/>
  <path style="fill:#7aa28d; stroke:none;" d="M169 92L170 93L169 92z"/>
  <path style="fill:#ba6468; stroke:none;" d="M195 92L196 93L195 92M66 93L67 94L66 93M90.3333 93.6667L90.6667 94.3333L90.3333 93.6667M119 93L120 94L119 93z"/>
  <path style="fill:#7aa28d; stroke:none;" d="M130 93L131 94L130 93z"/>
  <path style="fill:#0a6336; stroke:none;" d="M163 94L158 101L167 102L163 94z"/>
  <path style="fill:#7aa28d; stroke:none;" d="M164 94L165 95L164 94z"/>
  <path style="fill:#ba6468; stroke:none;" d="M198 94L199 95L198 94M62 95L63 96L62 95M73 95L74 96L73 95z"/>
  <path style="fill:#ba6468; stroke:none;" d="M108 95L109 96L108 95M117 95L118 96L117 95z"/>
  <path style="fill:#7aa28d; stroke:none;" d="M126 95L127 96L126 95M131 95L132 96L131 95z"/>
  <path style="fill:#ba6468; stroke:none;" d="M141 95L142 96L141 95M200 95L201 96L200 95M60 96L61 97L60 96M74 96L75 97L74 96M89 96L90 97L89 96z"/>
  <path style="fill:#0a6336; stroke:none;" d="M97 96L95 103L103 102L97 96z"/>
  <path style="fill:#ba6468; stroke:none;" d="M109 96L110 97L109 96z"/>
  <path style="fill:#7aa28d; stroke:none;" d="M125 96L126 97L125 96M132 96L133 97L132 96z"/>
  <path style="fill:#ba6468; stroke:none;" d="M142 96L143 97L142 96z"/>
  <path style="fill:#7aa28d; stroke:none;" d="M165.333 96.6667L165.667 97.3333L165.333 96.6667z"/>
  <path style="fill:#ba6468; stroke:none;" d="M171 96L172 97L171 96M189 96L190 97L189 96M201 96L202 97L201 96M59 97L60 98L59 97M70.3333 97.6667L70.6667 98.3333L70.3333 97.6667M75 97L76 98L75 97M143 97L144 98L143 97M149 97L150 98L149 97M188 97L189 98L188 97M190.333 97.6667L190.667 98.3333L190.333 97.6667M57 98L58 99L57 98M88.3333 98.6667L88.6667 99.3333L88.3333 98.6667z"/>
  <path style="fill:#7aa28d; stroke:none;" d="M95.3333 98.6667L95.6667 99.3333L95.3333 98.6667z"/>
  <path style="fill:#ba6468; stroke:none;" d="M115 98L116 99L115 98z"/>
  <path style="fill:#ba6468; stroke:none;" d="M148 98L149 99L148 98M172 98L173 99L172 98M186 98L187 99L186 98M204 98L205 99L204 98M78 99L79 100L78 99M111 99L112 100L111 99M114 99L115 100L114 99M147 99L148 100L147 99z"/>
  <path style="fill:#7aa28d; stroke:none;" d="M166.333 99.6667L166.667 100.333L166.333 99.6667z"/>
  <path style="fill:#ba6468; stroke:none;" d="M185 99L186 100L185 99M205 99L206 100L205 99M54 100L55 101L54 100M69.3333 100.667L69.6667 101.333L69.3333 100.667M79 100L80 101L79 100M112.667 100.333L113.333 100.667L112.667 100.333z"/>
  <path style="fill:#7aa28d; stroke:none;" d="M145 100L146 101L145 100z"/>
  <path style="fill:#ba6468; stroke:none;" d="M146 100L147 101L146 100z"/>
  <path style="fill:#7aa28d; stroke:none;" d="M157 100L158 101L157 100z"/>
  <path style="fill:#ba6468; stroke:none;" d="M173 100L174 101L173 100M183 100L184 101L183 100M191 100L192 101L191 100M206 100L207 101L206 100M53 101L54 102L53 101M80 101L81 102L80 101M87 101L88 102L87 101z"/>
  <path style="fill:#ba6468; stroke:none;" d="M182 101L183 102L182 101M207 101L208 102L207 101M52 102L53 103L52 102M81 102L82 103L81 102z"/>
  <path style="fill:#7aa28d; stroke:none;" d="M100.667 102.333L101.333 102.667L100.667 102.333M166 102L167 103L166 102z"/>
  <path style="fill:#ba6468; stroke:none;" d="M174 102L175 103L174 102M180 102L181 103L180 102M192.333 102.667L192.667 103.333L192.333 102.667M51 103L52 104L51 103M68.3333 103.667L68.6667 104.333L68.3333 103.667M86 103L87 104L86 103z"/>
  <path style="fill:#7aa28d; stroke:none;" d="M179 103L180 104L179 103z"/>
  <path style="fill:#ba6468; stroke:none;" d="M50 104L51 105L50 104M84 104L85 105L84 104M175 104L176 105L175 104M177 104L178 105L177 104M209 104L210 105L209 104M49 105L50 106L49 105M85 105L86 106L85 105z"/>
  <path style="fill:#0a6336; stroke:none;" d="M108 158C107.281 148.961 90.8715 147.105 95.8086 136.04C97.1966 132.93 100.074 131.711 102.15 129.251C104.917 125.971 104.962 121.39 108.214 118.228C114.632 111.987 126.846 114 135 114C140.752 114 147.926 113.365 152.956 116.738C157.499 119.786 157.275 124.517 160.138 128.53C162.663 132.069 166.633 133.239 167.59 138.004C169.709 148.553 155.319 149.389 155 159C164.232 156.796 173.786 156.37 183 153.848C194.647 150.66 224.433 139.442 208.786 123.185C206.842 121.165 204.436 119.663 202 118.312C198.158 116.183 194.158 114.412 190 113.004C161.019 103.187 127.851 103.031 98 108.424C86.6493 110.475 50.1 118.855 58.5764 136.999C65.9115 152.7 93.1903 155.21 108 158z"/>
  <path style="fill:#ba6468; stroke:none;" d="M193 105L194 106L193 105M210 105L211 106L210 105M48 106L49 107L48 106z"/>
  <path style="fill:#ba6468; stroke:none;" d="M47 107L48 108L47 107M55 107L56 108L55 107M67.3333 107.667L67.6667 108.333L67.3333 107.667z"/>
  <path style="fill:#ba6468; stroke:none;" d="M203 107L204 108L203 107M205 107L206 108L205 107M211 107L212 108L211 107M56 108L57 109L56 108z"/>
  <path style="fill:#ba6468; stroke:none;" d="M194 108L195 109L194 108M201 108L202 109L201 108z"/>
  <path style="fill:#7aa28d; stroke:none;" d="M202 108L203 109L202 108z"/>
  <path style="fill:#ba6468; stroke:none;" d="M46 109L47 110L46 109z"/>
  <path style="fill:#7aa28d; stroke:none;" d="M91.6667 109.333L92.3333 109.667L91.6667 109.333M177.667 109.333L178.333 109.667L177.667 109.333z"/>
  <path style="fill:#7aa28d; stroke:none;" d="M87.6667 110.333L88.3333 110.667L87.6667 110.333M181.667 110.333L182.333 110.667L181.667 110.333z"/>
  <path style="fill:#ba6468; stroke:none;" d="M195 110L196 111L195 110M198 110L199 111L198 110M213.333 110.667L213.667 111.333L213.333 110.667M45 111L46 112L45 111M60 111L61 112L60 111z"/>
  <path style="fill:#7aa28d; stroke:none;" d="M84.6667 111.333L85.3333 111.667L84.6667 111.333M185.667 111.333L186.333 111.667L185.667 111.333z"/>
  <path style="fill:#ba6468; stroke:none;" d="M196 111L197 112L196 111M207 111L208 112L207 111M61 112L62 113L61 112z"/>
  <path style="fill:#7aa28d; stroke:none;" d="M81 112L82 113L81 112M188.667 112.333L189.333 112.667L188.667 112.333z"/>
  <path style="fill:#7aa28d; stroke:none;" d="M78 113L79 114L78 113M191.667 113.333L192.333 113.667L191.667 113.333z"/>
  <path style="fill:#ba6468; stroke:none;" d="M209 114L210 115L209 114z"/>
  <path style="fill:#7aa28d; stroke:none;" d="M73 115L74 116L73 115M111.667 115.333L112.333 115.667L111.667 115.333M150.667 115.333L151.333 115.667L150.667 115.333M196 115L197 116L196 115M209 115L210 116L209 115M71 116L72 117L71 116M109 116L110 117L109 116M153 116L154 117L153 116M198 116L199 117L198 116z"/>
  <path style="fill:#7aa28d; stroke:none;" d="M69 117L70 118L69 117M200 117L201 118L200 117M67 118L68 119L67 118M202 118L203 119L202 118z"/>
  <path style="fill:#ba6468; stroke:none;" d="M 211 118 L 212 119 L 211 118"/>
  <path style="fill:#7aa28d; stroke:none;" d="M66 119L67 120L66 119M106 119L107 120L106 119M156 119L157 120L156 119M204 119L205 120L204 119M64 120L65 121L64 120M205 120L206 121L205 120z"/>
  <path style="fill:#ba6468; stroke:none;" d="M212 120L213 121L212 120z"/>
  <path style="fill:#7aa28d; stroke:none;" d="M63 121L64 122L63 121M105 121L106 122L105 121M157 121L158 122L157 121M216 121L217 122L216 121M62 122L63 123L62 122z"/>
  <path style="fill:#ba6468; stroke:none;" d="M213 122L214 123L213 122M216 122L215 126L216 122z"/>
  <path style="fill:#7aa28d; stroke:none;" d="M61 123L62 124L61 123M104.333 123.667L104.667 124.333L104.333 123.667z"/>
  <path style="fill:#7aa28d; stroke:none;" d="M60 124L61 125L60 124M158 124L159 125L158 124z"/>
  <path style="fill:#ba6468; stroke:none;" d="M214 124L215 125L214 124z"/>
  <path style="fill:#7aa28d; stroke:none;" d="M59 125L60 126L59 125M211 126L212 127L211 126M215.667 126.333L216.333 126.667L215.667 126.333z"/>
  <path style="fill:#ba6468; stroke:none;" d="M46 127L47 128L46 127z"/>
  <path style="fill:#ba6468; stroke:none;" d="M47 129L48 130L47 129z"/>
  <path style="fill:#7aa28d; stroke:none;" d="M57.3333 129.667L57.6667 130.333L57.3333 129.667z"/>
  <path style="fill:#ba6468; stroke:none;" d="M48 130L49 131L48 130z"/>
  <path style="fill:#7aa28d; stroke:none;" d="M 100 130 L 100 131 L 100 130 Z"/>
  <path style="fill:#ba6468; stroke:none;" d="M120.667 130.333L121.333 130.667L120.667 130.333z"/>
  <path style="fill:#b0090f; stroke:none;" d="M122 130C118.019 131.981 106.083 144.548 107 134C98.7175 138.835 103.045 147.9 111.001 150.211C120.393 152.939 126.398 148.743 131 141C134.718 150.972 147.132 154.729 155.772 147.351C160.802 143.056 159.157 136.894 154 134C155.429 143.546 142.414 131.116 138 130C137.139 141.15 125.688 136.968 122 130z"/>
  <path style="fill:#7aa28d; stroke:none;" d="M137 130L138 131L137 130z"/>
  <path style="fill:#ba6468; stroke:none;" d="M116 132L117 133L116 132M144 132L145 133L144 132z"/>
  <path style="fill:#7aa28d; stroke:none;" d="M165 132L166 133L165 132M50 133L51 134L50 133z"/>
  <path style="fill:#ba6468; stroke:none;" d="M115 133L116 134L115 133z"/>
  <path style="fill:#7aa28d; stroke:none;" d="M57.3333 134.667L57.6667 135.333L57.3333 134.667M96 134L97 135L96 134z"/>
  <path style="fill:#ba6468; stroke:none;" d="M105 134L106 135L105 134M107 134L108 135L107 134M114 134L115 135L114 134M153 134L154 135L153 134M155.667 134.333L156.333 134.667L155.667 134.333z"/>
  <path style="fill:#7aa28d; stroke:none;" d="M166 134L167 135L166 134M95.3333 135.667L95.6667 136.333L95.3333 135.667z"/>
  <path style="fill:#7aa28d; stroke:none;" d="M167 136L168 137L167 136M212 136L213 137L212 136M58 137L59 138L58 137z"/>
  <path style="fill:#7aa28d; stroke:none;" d="M211 138L212 139L211 138M94.3333 139.667L94.6667 140.333L94.3333 139.667z"/>
  <path style="fill:#ba6468; stroke:none;" d="M107 139L108 140L107 139M110 139L111 140L110 139z"/>
  <path style="fill:#7aa28d; stroke:none;" d="M210 139L211 140L210 139M60 140L61 141L60 140M61 141L62 142L61 141z"/>
  <path style="fill:#ba6468; stroke:none;" d="M130 141L131 142L130 141z"/>
  <path style="fill:#7aa28d; stroke:none;" d="M62 142L63 143L62 142z"/>
  <path style="fill:#ba6468; stroke:none;" d="M131.333 142.667L131.667 143.333L131.333 142.667z"/>
  <path style="fill:#7aa28d; stroke:none;" d="M167.333 142.667L167.667 143.333L167.333 142.667M95 143L96 144L95 143z"/>
  <path style="fill:#ba6468; stroke:none;" d="M102.333 143.667L102.667 144.333L102.333 143.667M129.333 143.667L129.667 144.333L129.333 143.667z"/>
  <path style="fill:#7aa28d; stroke:none;" d="M206 143L207 144L206 143M65 144L66 145L65 144z"/>
  <path style="fill:#ba6468; stroke:none;" d="M158 144L159 145L158 144z"/>
  <path style="fill:#7aa28d; stroke:none;" d="M205 144L206 145L205 144M66 145L67 146L66 145M96 145L97 146L96 145z"/>
  <path style="fill:#ba6468; stroke:none;" d="M103 145L104 146L103 145M128 145L129 146L128 145M132 145L133 146L132 145z"/>
  <path style="fill:#7aa28d; stroke:none;" d="M166 145L167 146L166 145M203 145L204 146L203 145M68 146L69 147L68 146M97 146L98 147L97 146z"/>
  <path style="fill:#ba6468; stroke:none;" d="M133 146L134 147L133 146M157 146L158 147L157 146z"/>
  <path style="fill:#7aa28d; stroke:none;" d="M165 146L166 147L165 146M202 146L203 147L202 146M70 147L71 148L70 147M98 147L99 148L98 147z"/>
  <path style="fill:#ba6468; stroke:none;" d="M127 147L128 148L127 147M156 147L157 148L156 147z"/>
  <path style="fill:#7aa28d; stroke:none;" d="M164 147L165 148L164 147M200 147L201 148L200 147M72 148L73 149L72 148M99 148L100 149L99 148z"/>
  <path style="fill:#ba6468; stroke:none;" d="M106 148L107 149L106 148M126 148L127 149L126 148M154 148L155 149L154 148z"/>
  <path style="fill:#7aa28d; stroke:none;" d="M163 148L164 149L163 148M198 148L199 149L198 148M74 149L75 150L74 149z"/>
  <path style="fill:#ba6468; stroke:none;" d="M108 149L109 150L108 149M124 149L125 150L124 149M136 149L137 150L136 149M152.667 149.333L153.333 149.667L152.667 149.333z"/>
  <path style="fill:#7aa28d; stroke:none;" d="M196 149L197 150L196 149M76.6667 150.333L77.3333 150.667L76.6667 150.333M102 150L103 151L102 150z"/>
  <path style="fill:#ba6468; stroke:none;" d="M110.667 150.333L111.333 150.667L110.667 150.333M121.667 150.333L122.333 150.667L121.667 150.333M138.667 150.333L139.333 150.667L138.667 150.333M149.667 150.333L150.333 150.667L149.667 150.333z"/>
</svg>